<svg xmlns="http://www.w3.org/2000/svg" xmlns:xlink="http://www.w3.org/1999/xlink" width="360.553" height="469.406" viewBox="0 0 360.553 469.406">
  <defs>
    <clipPath id="clip-path">
      <path id="Path_1599" data-name="Path 1599" d="M20.63,213.55H172.023V278.8H20.63Z" transform="translate(-20.63 -213.55)" fill="none"/>
    </clipPath>
  </defs>
  <g id="Group_667" data-name="Group 667" transform="translate(-374 -6927)">
    <rect id="Rectangle_162" data-name="Rectangle 162" width="360.553" height="469.406" rx="6.07" transform="translate(374 6927)" fill="#0077b5"/>
    <rect id="Rectangle_163" data-name="Rectangle 163" width="291.286" height="18.987" rx="5.65" transform="translate(408.633 7161.711)" fill="#f7baba"/>
    <rect id="Rectangle_164" data-name="Rectangle 164" width="291.286" height="18.987" rx="5.65" transform="translate(408.633 7196.395)" fill="#d9f4ff"/>
    <rect id="Rectangle_165" data-name="Rectangle 165" width="137.761" height="18.987" rx="5.65" transform="translate(408.633 7231.096)" fill="#d9f4ff"/>
    <rect id="Rectangle_166" data-name="Rectangle 166" width="137.761" height="18.987" rx="5.65" transform="translate(560.883 7231.096)" fill="#f7baba"/>
    <g id="chart" transform="translate(409.123 7281.959)">
      <path id="Path_1588" data-name="Path 1588" d="M182.4,207.206a41.368,41.368,0,0,0-12.146,1.565l10.174,41.009H141.3a41.072,41.072,0,1,0,41.1-42.59Z" transform="translate(-141.253 -207.19)" fill="#09f"/>
      <path id="Path_1589" data-name="Path 1589" d="M166.862,209.08a36.345,36.345,0,0,0-25.592,34.7v1.784H175.8Z" transform="translate(-141.27 -206.122)" fill="#ff7133"/>
    </g>
    <path id="Path_1590" data-name="Path 1590" d="M21,63.008s-.957-33.374,85.786-31.8a2.552,2.552,0,0,1,2.25,2.468,2.451,2.451,0,0,1-2.149,2.35c-8.528.621-35.96,4.583-23.4,26.861Z" transform="translate(388.254 6948.149)" fill="#f3f4ff"/>
    <path id="Path_1591" data-name="Path 1591" d="M70.975,63.643c1.125,0,1.444-.957,1.427-2.182V49.541a9.183,9.183,0,0,0-.755-4.348,6.715,6.715,0,0,1-.42-1.158h1.947a1.494,1.494,0,0,0,1.578-1.393,1.276,1.276,0,0,0,0-.5,13.732,13.732,0,0,0-.839-2.417,2.736,2.736,0,0,0-2.686-1.679c-.638,0-1.427.168-1.88-.168s-.5-1.125-.739-1.679l-2.25-5.809a4.684,4.684,0,0,0-2.938-2.669A24.124,24.124,0,0,0,55.5,26.139a83.035,83.035,0,0,0-14.589.285A30.47,30.47,0,0,0,35.872,27.6a3.912,3.912,0,0,0-2.636,2.535l-2.569,6.614c-.5,1.309-.5,1.343-1.847,1.343H27.814a2.451,2.451,0,0,0-2.082,1.343,13.866,13.866,0,0,0-1.091,2.8,1.477,1.477,0,0,0,1.041,1.813,1.276,1.276,0,0,0,.5,0h1.931l-.672,1.931a9.788,9.788,0,0,0-.5,2.6v13.43a1.36,1.36,0,0,0,1.125,1.561h6.48c1.091,0,1.578-1.679,1.444-2.854a15.78,15.78,0,0,1,0-2.182H63.354a16.267,16.267,0,0,1,0,2.216c-.118,1.209.336,2.82,1.444,2.82Z" transform="translate(390.691 6944.611)" fill="#2fa3d9"/>
    <path id="Path_1592" data-name="Path 1592" d="M31.109,38.759l.252-.873L34,31a2.787,2.787,0,0,1,2.065-1.83l2.082-.5a47.292,47.292,0,0,1,9.619-.6l9.636.6a4.315,4.315,0,0,1,4.3,3.139,4.649,4.649,0,0,0,.369.772l2.266,6.144a81.136,81.136,0,0,1-33.223.034ZM34.8,51.82H31.445c-2.35-.118-3.895-.806-3.895-3.123v-.235c0-2.182,1.679-2.787,3.861-2.266a3.576,3.576,0,0,1,.94.168l3.576,1.444a17.98,17.98,0,0,1,2.182,1.142,1.528,1.528,0,0,1,.722,1.8,1.427,1.427,0,0,1-1.461.99,21.62,21.62,0,0,1-2.552.1Zm26.239.1V51.8H58.054a1.511,1.511,0,0,1-1.494-.94A1.461,1.461,0,0,1,57,49.184a3.189,3.189,0,0,1,.621-.436l4.264-2.015a8.26,8.26,0,0,1,2.552-.47,1.326,1.326,0,0,1,1.41,1.209v1.78c0,1.595-.168,2.149-1.679,2.417a27.333,27.333,0,0,1-3.106.235Z" transform="translate(392.701 6946.025)" fill="#fff"/>
    <g id="Group_662" data-name="Group 662" transform="translate(129 5.495)">
      <path id="Path_1593" data-name="Path 1593" d="M20.63,254H182.767v5.574H20.63Z" transform="translate(388.003 7099.412)" fill="#f3f4ff"/>
      <g id="Group_637" data-name="Group 637" transform="translate(408.633 7285.505)" clip-path="url(#clip-path)">
        <path id="Path_1594" data-name="Path 1594" d="M20.63,233.92H39.315v31.058H20.63Z" transform="translate(-20.63 -199.723)" fill="#f7baba"/>
        <path id="Path_1595" data-name="Path 1595" d="M40.6,227.63H59.285v41.634H40.6Z" transform="translate(-7.075 -203.993)" fill="#d9f4ff"/>
        <path id="Path_1596" data-name="Path 1596" d="M60.58,213.55H79.248v65.271H60.58Z" transform="translate(6.488 -213.55)" fill="#09f"/>
        <path id="Path_1597" data-name="Path 1597" d="M80.56,233.92h18.7v31.058H80.56Z" transform="translate(20.05 -199.723)" fill="#ff7133" opacity="0.87"/>
        <path id="Path_1598" data-name="Path 1598" d="M99.68,241.37h18.685v18.567H99.68Z" transform="translate(33.028 -194.666)" fill="#99a8b5"/>
      </g>
    </g>
    <path id="Path_1600" data-name="Path 1600" d="M39.966,84.32a8.9,8.9,0,0,0,1.108,11.164,8.6,8.6,0,0,0,10.308,1.477C44.331,95.534,40.587,91.337,39.966,84.32Zm8.478-22.966a10.2,10.2,0,1,0,0-.084ZM60.581,93.922a12.473,12.473,0,0,1-11.466,7.89A13.145,13.145,0,0,1,37.8,80.962a23.233,23.233,0,0,1,3.055-3.509L48.528,70.2l8.982,8.612c4.2,4.314,5.54,9.368,3.072,15.025Z" transform="translate(390.223 6968.589)" fill="#2fa3d9"/>
    <path id="chart-2" data-name="chart" d="M68.075,130.65l-4.533-2.585,4.667-1.393a1.059,1.059,0,1,0-.386-2.082H67.6l-6.5,1.947-8.78-5.036,8.78-5.2,6.547,1.813a1.058,1.058,0,0,0,1.226-.856,1.074,1.074,0,0,0-.672-1.175L63.575,114.8l4.466-2.619a2.4,2.4,0,1,0-2.149-4.3l-.3.168-4.5,2.686,1.108-4.751a1.044,1.044,0,0,0-2.031-.487l-1.544,6.715-8.73,5.288V107.433l4.9-4.7a1.074,1.074,0,0,0-.118-1.494,1.041,1.041,0,0,0-1.326,0L49.876,104.6v-5.3a2.4,2.4,0,1,0-4.8,0v5.238l-3.525-3.358a1.071,1.071,0,0,0-1.494,1.528l4.9,4.7V117.64l-8.73-4.936-1.679-6.581a1.074,1.074,0,0,0-1.276-.755,1.041,1.041,0,0,0-.755,1.259l1.175,4.734-4.734-2.72a2.4,2.4,0,0,0-2.652,3.928l.3.168,4.751,2.686-4.6,1.377a1.044,1.044,0,0,0,.6,2l6.5-1.947,8.73,4.936-8.511,5.036H34l-6.547-1.813a1.047,1.047,0,0,0-.571,2.015l4.7,1.309-4.734,2.82a2.39,2.39,0,1,0,2.434,4.113l4.7-2.787-1.091,4.7a1.058,1.058,0,0,0,2.048.487l1.544-6.6,8.394-5.036v9.8l-4.9,4.7a1.041,1.041,0,0,0-.2,1.477,1.074,1.074,0,0,0,1.494.2l.168-.168,3.525-3.358V144.2a2.4,2.4,0,1,0,4.8,0v-5.506l3.475,3.358a1.045,1.045,0,0,0,1.444-1.511l-4.868-4.7v-9.9l8.814,5.036L60.3,137.55a1.058,1.058,0,0,0,1.309.705,1.041,1.041,0,0,0,.722-1.226l-1.175-4.667,4.533,2.552a2.39,2.39,0,1,0,2.35-4.163Z" transform="translate(391.342 6992.768)" fill="#2fa3d9"/>
    <path id="Path_1601" data-name="Path 1601" d="M93.214,25.77H260.657a6.144,6.144,0,1,1,0,12.289H93.214a6.144,6.144,0,1,1,0-12.289Zm0,17.174H260.657a6.144,6.144,0,1,1,0,12.289H93.214a6.144,6.144,0,1,1,0-12.289Zm0,17.241H260.657a6.144,6.144,0,1,1,0,12.289H93.214a6.144,6.144,0,1,1,0-12.289Zm0,26.407H260.657a6.144,6.144,0,1,1,0,12.289H93.214a6.144,6.144,0,1,1,0-12.289Zm0,17.258H260.657a6.144,6.144,0,1,1,0,12.289H93.214a6.144,6.144,0,1,1,0-12.289Zm0,17.191H260.657a6.144,6.144,0,1,1,0,12.289H93.214a6.144,6.144,0,1,1,0-12.289Zm0,24.141H260.657a6.144,6.144,0,1,1,0,12.289H93.214a6.144,6.144,0,1,1,0-12.289Zm0,17.208H260.657a6.144,6.144,0,1,1,0,12.289H93.214a6.144,6.144,0,1,1,0-12.289Zm0,17.208H260.657a6.144,6.144,0,1,1,0,12.289H93.214a6.144,6.144,0,1,1,0-12.289Z" transform="translate(433.102 6944.492)" fill="#f3f4ff"/>
  </g>
</svg>
