<svg xmlns="http://www.w3.org/2000/svg" xmlns:xlink="http://www.w3.org/1999/xlink" width="40" height="32" viewBox="0 0 40 32">
  <defs>
    <linearGradient id="linear-gradient" x1="0.5" x2="0.5" y2="1" gradientUnits="objectBoundingBox">
      <stop offset="0" stop-color="#1da5ff"/>
      <stop offset="1" stop-color="#0c95f1"/>
    </linearGradient>
  </defs>
  <path id="Icon_awesome-car-alt" data-name="Icon awesome-car-alt" d="M36.555,16.861l-.937-2.342-1.661-4.153A9.288,9.288,0,0,0,25.292,4.5H14.708a9.289,9.289,0,0,0-8.666,5.867L4.382,14.519l-.937,2.342A5.322,5.322,0,0,0,0,21.833v4a5.29,5.29,0,0,0,1.333,3.494v4.506A2.667,2.667,0,0,0,4,36.5H6.667a2.667,2.667,0,0,0,2.667-2.667V31.167H30.667v2.667A2.667,2.667,0,0,0,33.333,36.5H36a2.667,2.667,0,0,0,2.667-2.667V29.328A5.287,5.287,0,0,0,40,25.833v-4A5.322,5.322,0,0,0,36.555,16.861ZM10.994,12.348a4,4,0,0,1,3.714-2.514H25.292a4,4,0,0,1,3.714,2.514L30.667,16.5H9.333l1.661-4.153ZM6.667,25.817A2.515,2.515,0,0,1,4,23.158,2.515,2.515,0,0,1,6.667,20.5c1.6,0,4,2.392,4,3.987S8.267,25.817,6.667,25.817Zm26.667,0c-1.6,0-4,.266-4-1.329s2.4-3.987,4-3.987A2.515,2.515,0,0,1,36,23.158,2.515,2.515,0,0,1,33.333,25.817Z" transform="translate(0 -4.5)" opacity="0.8" fill="url(#linear-gradient)"/>
</svg>
