<svg xmlns="http://www.w3.org/2000/svg" xmlns:xlink="http://www.w3.org/1999/xlink" width="40" height="41.683" viewBox="0 0 40 41.683">
  <defs>
    <linearGradient id="linear-gradient" x1="0.5" x2="0.5" y2="1" gradientUnits="objectBoundingBox">
      <stop offset="0" stop-color="#1da5ff"/>
      <stop offset="1" stop-color="#0c95f1"/>
    </linearGradient>
  </defs>
  <path id="Icon_map-car-dealer" data-name="Icon map-car-dealer" d="M39.721,9.906a11.052,11.052,0,0,0-3.263-1.085L34.9,8.613V4.847l.8-.013c.748.379,1.825,1,1.881,1.835h3C40.527,5,39.261,3.95,38.134,3.115A5.987,5.987,0,0,0,34.9,2.085V0H33.233V2.021a4.2,4.2,0,0,0-2.959,1.253,4.253,4.253,0,0,0-1.423,3.337,3.593,3.593,0,0,0,1.427,3.235,7.276,7.276,0,0,0,2.955,1.091v4.081c-.834-.148-.835-.11-1.13-.459s-.361-1.22-.458-1.22H28.664a3.638,3.638,0,0,0,1.58,3.355c.814.641,1.321.754,2.989.923v1.557H34.9V17.644a7.3,7.3,0,0,0,3.9-1.281,4.648,4.648,0,0,0,1.922-3.4c0-1.332-.108-2.349-1-3.054ZM32.414,7.584a1.238,1.238,0,0,1-.672-1.2A1.475,1.475,0,0,1,32.4,5.023c.259-.171,0-.3.838-.378V7.93C32.4,7.8,32.6,7.688,32.414,7.584Zm3.621,7.353c-.14.048-1.135.087-1.135.121V11.584c1.667.143,1.539.3,1.816.465a1.283,1.283,0,0,1,.653,1.148,1.746,1.746,0,0,1-1.334,1.74ZM32,25.01h-.461l-5.122-9.275a1.561,1.561,0,0,0-1.236-.729H9.639a1.561,1.561,0,0,0-1.236.729L3.281,25.01h-.46c-.918,0-2.1.75-2.1,1.667v8.337c0,.917,1.183,1.667,2.1,1.667H4.055v2.5c0,1.376,1.559,2.5,2.934,2.5h.834c1.376,0,2.067-1.125,2.067-2.5v-2.5H24.063v2.5c0,1.376,1.558,2.5,2.934,2.5h.834c1.376,0,2.067-1.125,2.067-2.5v-2.5H32c.917,0,1.234-.75,1.234-1.667V26.677c0-.917-.318-1.667-1.234-1.667ZM5.739,31.679A2.084,2.084,0,1,1,7.823,29.6,2.084,2.084,0,0,1,5.739,31.679ZM7.406,25.01l3.379-6.757a1.478,1.478,0,0,1,1.206-.746H22.829a1.479,1.479,0,0,1,1.206.746l3.379,6.757H7.406Zm21.675,6.669A2.084,2.084,0,1,1,31.165,29.6,2.084,2.084,0,0,1,29.081,31.679Z" transform="translate(-0.72)" opacity="0.8" fill="url(#linear-gradient)"/>
</svg>
