<svg xmlns="http://www.w3.org/2000/svg" xmlns:xlink="http://www.w3.org/1999/xlink" width="40" height="25.995" viewBox="0 0 40 25.995">
  <defs>
    <linearGradient id="linear-gradient" x1="0.5" x2="0.5" y2="1" gradientUnits="objectBoundingBox">
      <stop offset="0" stop-color="#1da5ff"/>
      <stop offset="1" stop-color="#0c95f1"/>
    </linearGradient>
  </defs>
  <g id="Icon_ionic-ios-people" data-name="Icon ionic-ios-people" transform="translate(-2.215 -7.749)" opacity="0.8">
    <path id="Path_1468" data-name="Path 1468" d="M31.592,27.748c-1.127-.356-2.968-.374-3.783-.65a5.676,5.676,0,0,1-1.75-.722,8.525,8.525,0,0,1-.292-2.539,4.176,4.176,0,0,0,1-1.247,12.421,12.421,0,0,0,.483-2.45s.664.249.926-.927c.221-1.016.644-1.55.533-2.3s-.583-.57-.583-.57.583-.757.583-3.332c0-2.655-2.264-5.265-6.5-5.265S15.7,10.368,15.7,13.013c0,2.575.573,3.332.573,3.332s-.473-.178-.583.57.3,1.283.533,2.3c.262,1.185.926.927.926.927a12.54,12.54,0,0,0,.483,2.45,4.176,4.176,0,0,0,1,1.247,8.525,8.525,0,0,1-.292,2.539,5.469,5.469,0,0,1-1.75.713c-.8.276-2.646.312-3.783.668s-4.608,1.978-4.608,5.987h28C36.2,29.726,32.718,28.1,31.592,27.748Z" fill="url(#linear-gradient)"/>
    <path id="Path_1469" data-name="Path 1469" d="M9.844,23.716a3.752,3.752,0,0,0,2.348-.919c-1.09-2.322-.5-5.029-.724-7.558s-1.245-4.031-3.284-4.031H8.156c-1.969,0-3.03,1.5-3.255,4.031s.4,5.533-.717,7.558c.668.85,2.355.82,2.355.82h0a6.992,6.992,0,0,1-.07,1.66,1.616,1.616,0,0,1-.844.543,12.859,12.859,0,0,0-1.821.711,4.483,4.483,0,0,0-1.589,3.675H7.861a6.361,6.361,0,0,1,2.25-2.944,3.585,3.585,0,0,1,1.737-.514s.267-.593-.612-.82a4.954,4.954,0,0,1-1.35-.662A6.241,6.241,0,0,1,9.844,23.716Z" fill="url(#linear-gradient)"/>
    <path id="Path_1470" data-name="Path 1470" d="M26.156,23.716a3.752,3.752,0,0,1-2.348-.919c1.09-2.322.5-5.029.724-7.558s1.245-4.031,3.284-4.031h.028c1.969,0,3.03,1.5,3.255,4.031s-.4,5.533.717,7.558c-.668.85-2.355.82-2.355.82h0a6.992,6.992,0,0,0,.07,1.66,1.616,1.616,0,0,0,.844.543,12.86,12.86,0,0,1,1.821.711,4.483,4.483,0,0,1,1.589,3.675H28.139a6.361,6.361,0,0,0-2.25-2.944,3.585,3.585,0,0,0-1.737-.514s-.267-.593.612-.82a4.954,4.954,0,0,0,1.35-.662A6.241,6.241,0,0,0,26.156,23.716Z" transform="translate(8.43)" fill="url(#linear-gradient)"/>
  </g>
</svg>
