<svg xmlns="http://www.w3.org/2000/svg" xmlns:xlink="http://www.w3.org/1999/xlink" width="40" height="32" viewBox="0 0 40 32">
  <defs>
    <linearGradient id="linear-gradient" x1="0.5" x2="0.5" y2="1" gradientUnits="objectBoundingBox">
      <stop offset="0" stop-color="#1da5ff"/>
      <stop offset="1" stop-color="#0c95f1"/>
    </linearGradient>
  </defs>
  <path id="Icon_awesome-truck" data-name="Icon awesome-truck" d="M39,22H38V15.244a3,3,0,0,0-.881-2.119L30.875,6.881A3,3,0,0,0,28.756,6H26V3a3,3,0,0,0-3-3H3A3,3,0,0,0,0,3V23a3,3,0,0,0,3,3H4a6,6,0,0,0,12,0h8a6,6,0,0,0,12,0h3a1,1,0,0,0,1-1V23A1,1,0,0,0,39,22ZM10,29a3,3,0,1,1,3-3A3,3,0,0,1,10,29Zm20,0a3,3,0,1,1,3-3A3,3,0,0,1,30,29Zm5-13H26V9h2.756L35,15.244Z" opacity="0.8" fill="url(#linear-gradient)"/>
</svg>
