<svg xmlns="http://www.w3.org/2000/svg" width="99.873" height="67.594" viewBox="0 0 99.873 67.594">
  <g id="security-camera" transform="translate(0 -91)">
    <g id="Group_258" data-name="Group 258" transform="translate(0 91)">
      <g id="Group_249" data-name="Group 249" transform="translate(69.149 6.146)">
        <g id="Group_248" data-name="Group 248">
          <path id="Path_1233" data-name="Path 1233" d="M387.81,175.694l-24.58-18.435A3.071,3.071,0,0,1,362,154.8v-12.29a3.071,3.071,0,0,1,1.23-2.457l24.58-18.435a3.071,3.071,0,0,1,4.915,2.457v49.159a3.071,3.071,0,0,1-4.915,2.457Z" transform="translate(-362 -121.006)" fill="#406c80"/>
        </g>
      </g>
      <g id="Group_253" data-name="Group 253" transform="translate(0 0)">
        <g id="Group_252" data-name="Group 252">
          <g id="Group_251" data-name="Group 251">
            <g id="Group_250" data-name="Group 250">
              <path id="Path_1234" data-name="Path 1234" d="M71.076,158.594H9.217A9.217,9.217,0,0,1,0,149.377V100.217A9.217,9.217,0,0,1,9.217,91H71.076a9.217,9.217,0,0,1,9.217,9.217v49.159A9.217,9.217,0,0,1,71.076,158.594Z" transform="translate(0 -91)" fill="#406c80"/>
            </g>
          </g>
        </g>
      </g>
      <path id="Path_1235" data-name="Path 1235" d="M227.725,91H197v67.594h30.725a9.217,9.217,0,0,0,9.217-9.217V100.217A9.217,9.217,0,0,0,227.725,91Z" transform="translate(-156.648 -91)" fill="#344e66"/>
      <path id="Path_1236" data-name="Path 1236" d="M30,173.232V124.072A3.073,3.073,0,0,1,33.072,121H94.931A3.073,3.073,0,0,1,98,124.072v49.159a3.073,3.073,0,0,1-3.072,3.072H33.072A3.073,3.073,0,0,1,30,173.232Z" transform="translate(-23.855 -114.855)" fill="#f3f5f9"/>
      <path id="Path_1237" data-name="Path 1237" d="M197,176.3h30.725a3.073,3.073,0,0,0,3.072-3.072V124.072A3.073,3.073,0,0,0,227.725,121H197Z" transform="translate(-156.648 -114.855)" fill="#e1e6f0"/>
      <g id="Video_Camera_1_" transform="translate(21.917 12.29)">
        <g id="Group_257" data-name="Group 257">
          <g id="Group_254" data-name="Group 254" transform="translate(0 30.725)">
            <path id="Path_1238" data-name="Path 1238" d="M110.072,313.29A3.071,3.071,0,0,1,107,310.217v-6.145a3.072,3.072,0,1,1,6.145,0v6.145A3.071,3.071,0,0,1,110.072,313.29Z" transform="translate(-107 -301)" fill="#406c80"/>
          </g>
          <g id="Group_255" data-name="Group 255" transform="translate(30.725 30.725)">
            <path id="Path_1239" data-name="Path 1239" d="M260.072,313.29A3.071,3.071,0,0,1,257,310.217v-6.145a3.072,3.072,0,1,1,6.145,0v6.145A3.071,3.071,0,0,1,260.072,313.29Z" transform="translate(-257 -301)" fill="#344e66"/>
          </g>
          <g id="Group_256" data-name="Group 256" transform="translate(1.538)">
            <path id="Path_1240" data-name="Path 1240" d="M145.233,172.507H117.581a3.068,3.068,0,0,1-3.024-3.6l2.214-12.719a3.039,3.039,0,0,1,.75-1.533C118.3,153.8,121.59,151,131.407,151s13.112,2.8,13.886,3.655a3.04,3.04,0,0,1,.75,1.533l2.214,12.719a3.068,3.068,0,0,1-3.025,3.6Z" transform="translate(-114.511 -151)" fill="#406c80"/>
          </g>
        </g>
      </g>
      <path id="Path_1241" data-name="Path 1241" d="M210.826,172.507a3.068,3.068,0,0,0,3.024-3.6l-2.214-12.719a3.04,3.04,0,0,0-.75-1.533C210.112,153.8,206.818,151,197,151v21.507Z" transform="translate(-156.648 -138.71)" fill="#344e66"/>
    </g>
    <g id="Group_259" data-name="Group 259" transform="translate(17.308 118.652)">
      <path id="Path_1242" data-name="Path 1242" d="M127.514,247.507H87.572a3.071,3.071,0,0,1-3.072-3.072v-9.217A9.228,9.228,0,0,1,93.717,226h27.652a9.228,9.228,0,0,1,9.217,9.217v9.217A3.071,3.071,0,0,1,127.514,247.507Z" transform="translate(-84.5 -226)" fill="#afe645"/>
    </g>
    <path id="Path_1243" data-name="Path 1243" d="M210.826,226H197v21.507h19.971a3.071,3.071,0,0,0,3.072-3.072v-9.217A9.228,9.228,0,0,0,210.826,226Z" transform="translate(-156.648 -107.348)" fill="#7ccc29"/>
  </g>
</svg>
