<svg xmlns="http://www.w3.org/2000/svg" width="49.937" height="63.132" viewBox="0 0 49.937 63.132">
  <g id="bell" transform="translate(-53.506)">
    <path id="Path_1471" data-name="Path 1471" d="M209.114,0a6.576,6.576,0,0,0-6.576,6.576,6.547,6.547,0,0,0,.087.942,1.315,1.315,0,0,0,1.315,1.126,1.343,1.343,0,0,0,.371-.053,16.972,16.972,0,0,1,9.63,0,1.347,1.347,0,0,0,1.086-.2,1.4,1.4,0,0,0,.6-.957,5.95,5.95,0,0,0,.079-.863A6.576,6.576,0,0,0,209.125,0Z" transform="translate(-130.655 0)" fill="#f57c00"/>
    <path id="Path_1472" data-name="Path 1472" d="M198.3,426.667H182.519a1.315,1.315,0,0,0-1.315,1.315,9.207,9.207,0,1,0,18.414,0A1.315,1.315,0,0,0,198.3,426.667Z" transform="translate(-111.952 -374.057)" fill="#ffa000"/>
    <path id="Path_1473" data-name="Path 1473" d="M102.978,85.51c-.416-.918-.939-1.944-1.518-3.075a42.824,42.824,0,0,1-5.9-19.834c0-10.425-5.524-18.074-14.068-19.487a16.817,16.817,0,0,0-13.842,4.035,18.469,18.469,0,0,0-6.313,14.52,42,42,0,0,1-5.871,20.8c-.566,1.115-1.081,2.131-1.491,3.036a5.2,5.2,0,0,0,4.759,7.344h39.5a5.2,5.2,0,0,0,4.751-7.342h0Z" transform="translate(0 -37.611)" fill="#ffc107"/>
    <path id="Path_1474" data-name="Path 1474" d="M104.291,124.791a1.315,1.315,0,0,1-1.176-1.9l.424-.831A48.191,48.191,0,0,0,109.992,99.8c0-6.674,3.1-14.468,11.837-14.468a1.315,1.315,0,0,1,0,2.631c-8.544,0-9.207,9.059-9.207,11.837a50.425,50.425,0,0,1-6.742,23.451l-.41.813A1.315,1.315,0,0,1,104.291,124.791Z" transform="translate(-43.37 -74.812)" fill="#ffd54f"/>
  </g>
</svg>
