<svg id="cross-platform" xmlns="http://www.w3.org/2000/svg" width="62.459" height="61.052" viewBox="0 0 62.459 61.052">
  <path id="Path_1096" data-name="Path 1096" d="M58.892,53.958H11.841A3.841,3.841,0,0,1,8,50.117V14.589a3.841,3.841,0,0,1,3.841-3.841H58.892a3.841,3.841,0,0,1,3.841,3.841V50.117A3.841,3.841,0,0,1,58.892,53.958Z" transform="translate(-7.488 -10.236)" fill="#e0ebfc"/>
  <path id="Path_1097" data-name="Path 1097" d="M19.335,49.37V23.443A1.44,1.44,0,0,1,20.775,22H66.866a1.44,1.44,0,0,1,1.44,1.44V49.37a1.44,1.44,0,0,1-1.44,1.44H20.775a1.44,1.44,0,0,1-1.44-1.44Z" transform="translate(-15.922 -18.61)" fill="#6bdddd"/>
  <path id="Path_1098" data-name="Path 1098" d="M79.235,213.861H45.921a1.347,1.347,0,0,1-1.347-1.347v-.666a1.347,1.347,0,0,1,1.347-1.347H79.235a1.347,1.347,0,0,1,1.347,1.347v.666A1.347,1.347,0,0,1,79.235,213.861Z" transform="translate(-34.7 -158.856)" fill="#a4c9ff"/>
  <path id="Path_1099" data-name="Path 1099" d="M65.266,179.553l-1.936,7.921H89.736L87.8,179.553Z" transform="translate(-48.655 -135.83)" fill="#e0ebfc"/>
  <path id="Path_1100" data-name="Path 1100" d="M8,145.791v4.8a3.841,3.841,0,0,0,3.841,3.841H58.892a3.841,3.841,0,0,0,3.841-3.841v-4.8Z" transform="translate(-7.488 -110.711)" fill="#a4c9ff"/>
  <path id="Path_1101" data-name="Path 1101" d="M108.054,158.093h-.246a2.284,2.284,0,0,1-2.277-2.277v-.247a2.284,2.284,0,0,1,2.277-2.277h.246a2.284,2.284,0,0,1,2.277,2.277v.247A2.284,2.284,0,0,1,108.054,158.093Z" transform="translate(-80.052 -116.292)" fill="#4671c6"/>
  <g id="Group_211" data-name="Group 211" transform="translate(0 0)">
    <path id="Path_1102" data-name="Path 1102" d="M57.4,52.982H10.353A4.358,4.358,0,0,1,6,48.629V13.1a4.358,4.358,0,0,1,4.353-4.353H57.4A4.358,4.358,0,0,1,61.757,13.1V48.629A4.358,4.358,0,0,1,57.4,52.982ZM10.353,9.772A3.333,3.333,0,0,0,7.024,13.1V48.629a3.333,3.333,0,0,0,3.329,3.329H57.4a3.333,3.333,0,0,0,3.329-3.329V13.1A3.333,3.333,0,0,0,57.4,9.772Z" transform="translate(-6 -8.748)" fill="#3762cc"/>
    <path id="Path_1103" data-name="Path 1103" d="M77.747,212.882H44.433a1.861,1.861,0,0,1-1.859-1.859v-.666a1.861,1.861,0,0,1,1.859-1.859H77.747a1.862,1.862,0,0,1,1.859,1.859v.666A1.861,1.861,0,0,1,77.747,212.882Zm-33.314-3.361a.836.836,0,0,0-.835.835v.666a.836.836,0,0,0,.835.836H77.747a.836.836,0,0,0,.836-.836v-.666a.836.836,0,0,0-.836-.835Z" transform="translate(-33.212 -157.365)" fill="#3762cc"/>
    <path id="Path_1104" data-name="Path 1104" d="M88.248,186.5H61.842a.512.512,0,0,1-.5-.634l1.936-7.921a.512.512,0,0,1,.5-.39H86.312a.512.512,0,0,1,.5.39l1.936,7.921a.512.512,0,0,1-.5.634Zm-25.754-1.024H87.6l-1.686-6.9H64.18Z" transform="translate(-47.167 -134.342)" fill="#3762cc"/>
    <path id="Path_1105" data-name="Path 1105" d="M57.4,153.457H10.353A4.358,4.358,0,0,1,6,149.1v-4.8a.512.512,0,0,1,.512-.512H61.245a.512.512,0,0,1,.512.512v4.8A4.358,4.358,0,0,1,57.4,153.457Zm-50.38-8.642V149.1a3.333,3.333,0,0,0,3.329,3.329H57.4a3.333,3.333,0,0,0,3.329-3.329v-4.289Z" transform="translate(-6 -109.223)" fill="#3762cc"/>
    <path id="Path_1106" data-name="Path 1106" d="M65.378,49.835H19.287a1.955,1.955,0,0,1-1.952-1.952V21.956A1.954,1.954,0,0,1,19.287,20H65.378a1.954,1.954,0,0,1,1.952,1.952V47.882A1.955,1.955,0,0,1,65.378,49.835ZM19.287,21.028a.929.929,0,0,0-.928.928V47.882a.929.929,0,0,0,.928.928H65.378a.929.929,0,0,0,.928-.928V21.956a.929.929,0,0,0-.928-.928Z" transform="translate(-14.433 -17.123)" fill="#3762cc"/>
  </g>
  <path id="Path_1107" data-name="Path 1107" d="M81.048,87.9a1.022,1.022,0,0,1-.685-.263l-5.1-4.6a1.024,1.024,0,0,1,.685-1.784H94.369a1.024,1.024,0,1,1,0,2.048H78.61l3.124,2.816a1.024,1.024,0,0,1-.686,1.784Z" transform="translate(-57.278 -62.692)" fill="#4671c6"/>
  <path id="Path_1108" data-name="Path 1108" d="M94.369,55.969H75.945a1.024,1.024,0,1,1,0-2.048H91.7L88.58,51.105a1.024,1.024,0,0,1,1.371-1.521l5.1,4.6a1.024,1.024,0,0,1-.685,1.784Z" transform="translate(-57.279 -38.935)" fill="#4671c6"/>
  <path id="Path_1109" data-name="Path 1109" d="M0,0H17.428V22.407H0Z" transform="translate(61.947 56.806) rotate(180)" fill="#6bdddd"/>
  <path id="Path_1110" data-name="Path 1110" d="M197.346,130.531v1.743H179.918v-1.743a1.992,1.992,0,0,1,1.992-1.992h13.444A1.992,1.992,0,0,1,197.346,130.531Z" transform="translate(-135.399 -97.875)" fill="#e0ebfc"/>
  <path id="Path_1111" data-name="Path 1111" d="M179.918,232.406v-1.743h17.428v1.743a1.992,1.992,0,0,1-1.992,1.992H181.91A1.992,1.992,0,0,1,179.918,232.406Z" transform="translate(-135.399 -173.857)" fill="#e0ebfc"/>
  <path id="Path_1112" data-name="Path 1112" d="M193.865,157.439H180.421a2.507,2.507,0,0,1-2.5-2.5V129.042a2.506,2.506,0,0,1,2.5-2.5h13.444a2.507,2.507,0,0,1,2.5,2.5v25.893A2.507,2.507,0,0,1,193.865,157.439Zm-13.444-29.876a1.481,1.481,0,0,0-1.48,1.48v25.893a1.481,1.481,0,0,0,1.48,1.48h13.444a1.482,1.482,0,0,0,1.48-1.48V129.042a1.481,1.481,0,0,0-1.48-1.48Z" transform="translate(-133.91 -96.387)" fill="#3762cc"/>
  <path id="Path_1113" data-name="Path 1113" d="M205.952,236.059h2.988a.747.747,0,0,0,.747-.747v-.5a.747.747,0,0,0-.747-.747h-2.988a.747.747,0,0,0-.747.747v.5A.747.747,0,0,0,205.952,236.059Z" transform="translate(-154.213 -176.39)" fill="#a4c9ff"/>
  <path id="Path_1114" data-name="Path 1114" d="M204.855,134.646h3.734a.623.623,0,0,0,0-1.245h-3.734a.623.623,0,0,0,0,1.245Z" transform="translate(-153.489 -101.492)" fill="#a4c9ff"/>
  <path id="Path_1115" data-name="Path 1115" d="M195.857,131.3H178.429a.512.512,0,0,1-.512-.512v-1.743a2.506,2.506,0,0,1,2.5-2.5h13.444a2.507,2.507,0,0,1,2.5,2.5v1.743A.512.512,0,0,1,195.857,131.3Zm-16.916-1.024h16.4v-1.231a1.481,1.481,0,0,0-1.48-1.48H180.421a1.481,1.481,0,0,0-1.48,1.48Z" transform="translate(-133.91 -96.387)" fill="#3762cc"/>
  <path id="Path_1116" data-name="Path 1116" d="M193.865,233.421H180.421a2.507,2.507,0,0,1-2.5-2.5v-1.743a.512.512,0,0,1,.512-.512h17.428a.512.512,0,0,1,.512.512v1.743A2.507,2.507,0,0,1,193.865,233.421Zm-14.924-3.735v1.231a1.481,1.481,0,0,0,1.48,1.48h13.444a1.482,1.482,0,0,0,1.48-1.48v-1.231Z" transform="translate(-133.91 -172.368)" fill="#3762cc"/>
  <path id="Path_1117" data-name="Path 1117" d="M193.865,157.439H180.421a2.507,2.507,0,0,1-2.5-2.5V129.042a2.506,2.506,0,0,1,2.5-2.5h13.444a2.507,2.507,0,0,1,2.5,2.5v25.893A2.507,2.507,0,0,1,193.865,157.439Zm-13.444-29.876a1.481,1.481,0,0,0-1.48,1.48v25.893a1.481,1.481,0,0,0,1.48,1.48h13.444a1.482,1.482,0,0,0,1.48-1.48V129.042a1.481,1.481,0,0,0-1.48-1.48Z" transform="translate(-133.91 -96.387)" fill="#3762cc"/>
  <path id="Path_1118" data-name="Path 1118" d="M196.036,193.662a.767.767,0,0,1-.514-.2l-2.593-2.337a.768.768,0,0,1,.514-1.339h9.36a.768.768,0,1,1,0,1.536h-7.361l1.108,1a.768.768,0,0,1-.514,1.339Z" transform="translate(-144.89 -143.446)" fill="#4671c6"/>
  <path id="Path_1119" data-name="Path 1119" d="M202.8,172.745h-9.36a.768.768,0,1,1,0-1.536h7.361l-1.108-1a.768.768,0,0,1,1.028-1.141l2.593,2.337a.768.768,0,0,1-.514,1.338Z" transform="translate(-144.891 -127.884)" fill="#4671c6"/>
</svg>
