<svg id="real_time_tracking" data-name="real time tracking" xmlns="http://www.w3.org/2000/svg" width="70.428" height="70.437" viewBox="0 0 70.428 70.437">
  <path id="Path_1197" data-name="Path 1197" d="M116.348,268.239H93.314a13.28,13.28,0,0,1,0-26.56h7.657a4.1,4.1,0,1,0,0-8.192H92.965v-4.127h8.006a8.222,8.222,0,1,1,0,16.445H93.314a9.153,9.153,0,0,0,0,18.307h23.034Z" transform="translate(-69.029 -197.811)" fill="#0b799d"/>
  <path id="Path_1198" data-name="Path 1198" d="M83.7,0,80.946,13.882,83.7,33.513,93.513,23.7A13.882,13.882,0,0,0,83.7,0Z" transform="translate(-69.816 0)" fill="#e50058"/>
  <path id="Path_1199" data-name="Path 1199" d="M.03,13.882A13.838,13.838,0,0,0,4.1,23.7l9.816,9.816V0A13.882,13.882,0,0,0,.03,13.882Z" transform="translate(-0.03 0)" fill="#ff415b"/>
  <path id="Path_1200" data-name="Path 1200" d="M83.7,30l-2.751,9.755L83.7,49.511A9.755,9.755,0,0,0,83.7,30Z" transform="translate(-69.816 -25.873)" fill="#ff415b"/>
  <path id="Path_1201" data-name="Path 1201" d="M30.029,39.755a9.766,9.766,0,0,0,9.755,9.755V30A9.766,9.766,0,0,0,30.029,39.755Z" transform="translate(-25.902 -25.873)" fill="#ff7c48"/>
  <path id="Path_1202" data-name="Path 1202" d="M89.327,65.629A5.635,5.635,0,0,0,83.7,60l-2.751,5.629L83.7,71.257A5.635,5.635,0,0,0,89.327,65.629Z" transform="translate(-69.816 -51.747)" fill="#e1ebf0"/>
  <path id="Path_1203" data-name="Path 1203" d="M60.029,65.629a5.635,5.635,0,0,0,5.629,5.629V60A5.635,5.635,0,0,0,60.029,65.629Z" transform="translate(-51.776 -51.747)" fill="#fff5f5"/>
  <path id="Path_1204" data-name="Path 1204" d="M414.776,318.913,412.025,332.2l2.751,13.284,7.782-7.782a11.005,11.005,0,0,0-7.782-18.787Z" transform="translate(-355.353 -275.045)" fill="#e50058"/>
  <path id="Path_1205" data-name="Path 1205" d="M352.022,329.918a10.933,10.933,0,0,0,3.223,7.782l7.782,7.782V318.913A11.017,11.017,0,0,0,352.022,329.918Z" transform="translate(-303.604 -275.045)" fill="#ff415b"/>
</svg>
