<svg xmlns="http://www.w3.org/2000/svg" width="71.889" height="51.981" viewBox="0 0 71.889 51.981">
  <g id="car" transform="translate(0 -13.886)">
    <path id="Path_1038" data-name="Path 1038" d="M200.807,191.626a4.428,4.428,0,0,1-4.415,4.415h-3.1a4.428,4.428,0,0,1-4.415-4.415v-6.079a2.271,2.271,0,0,1,2.265-2.265h7.4a2.271,2.271,0,0,1,2.265,2.265v6.079Z" transform="translate(-135.013 -134.076)" fill="#9e9e9e"/>
    <path id="Path_1039" data-name="Path 1039" d="M38.518,191.626a4.428,4.428,0,0,1-4.415,4.415h-3.1a4.428,4.428,0,0,1-4.415-4.415v-6.079a2.271,2.271,0,0,1,2.265-2.265h7.4a2.271,2.271,0,0,1,2.265,2.265v6.079Z" transform="translate(-20.497 -134.076)" fill="#9e9e9e"/>
    <g id="Group_180" data-name="Group 180" transform="translate(6.093 49.207)">
      <path id="Path_1040" data-name="Path 1040" d="M29.685,191.626v-6.079a2.271,2.271,0,0,1,2.265-2.265h-3.1a2.271,2.271,0,0,0-2.265,2.265v6.079a4.428,4.428,0,0,0,4.415,4.415h3.1A4.428,4.428,0,0,1,29.685,191.626Z" transform="translate(-26.59 -183.283)" fill="#707070"/>
    </g>
    <g id="Group_181" data-name="Group 181" transform="translate(58.283 49.207)">
      <path id="Path_1041" data-name="Path 1041" d="M208.3,191.626v-6.079a2.271,2.271,0,0,0-2.265-2.265h3.1a2.271,2.271,0,0,1,2.265,2.265v6.079a4.428,4.428,0,0,1-4.415,4.415h-3.1A4.428,4.428,0,0,0,208.3,191.626Z" transform="translate(-203.886 -183.283)" fill="#cecece"/>
    </g>
    <path id="Path_1042" data-name="Path 1042" d="M84.849,67.4a4.022,4.022,0,0,0-3.111-2.606H44.523A4.023,4.023,0,0,0,41.413,67.4L36.072,80.572H90.19Z" transform="translate(-27.188 -50.465)" fill="#9e9e9e"/>
    <g id="Group_182" data-name="Group 182" transform="translate(8.884 14.328)">
      <path id="Path_1043" data-name="Path 1043" d="M47.618,64.792h-3.1A4.022,4.022,0,0,0,41.413,67.4L36.072,80.571h3.1L44.508,67.4A4.022,4.022,0,0,1,47.618,64.792Z" transform="translate(-36.072 -64.792)" fill="#707070"/>
    </g>
    <g id="Group_183" data-name="Group 183" transform="translate(51.456 14.328)">
      <path id="Path_1044" data-name="Path 1044" d="M180.694,64.792h3.1A4.022,4.022,0,0,1,186.9,67.4l5.341,13.172h-3.1L183.8,67.4A4.022,4.022,0,0,0,180.694,64.792Z" transform="translate(-180.694 -64.792)" fill="#cecece"/>
    </g>
    <path id="Path_1045" data-name="Path 1045" d="M74.449,118.4H20.327l-6.565,7.474H81.014Z" transform="translate(-11.445 -88.289)" fill="#63bce7"/>
    <g id="Group_184" data-name="Group 184" transform="translate(2.317 30.106)">
      <path id="Path_1046" data-name="Path 1046" d="M20.327,118.4l-6.565,7.474h3.1l6.565-7.474Z" transform="translate(-13.762 -118.395)" fill="#6377e7"/>
    </g>
    <g id="Group_185" data-name="Group 185" transform="translate(59.909 30.106)">
      <path id="Path_1047" data-name="Path 1047" d="M212.505,118.4l6.565,7.474h-3.1L209.41,118.4Z" transform="translate(-209.41 -118.395)" fill="#67dceb"/>
    </g>
    <path id="Path_1048" data-name="Path 1048" d="M13.762,143.786V156.81a2.944,2.944,0,0,0,2.944,2.944H78.071a2.944,2.944,0,0,0,2.944-2.944V143.786Z" transform="translate(-11.445 -106.206)" fill="#63bce7"/>
    <g id="Group_186" data-name="Group 186" transform="translate(2.317 37.58)">
      <path id="Path_1049" data-name="Path 1049" d="M16.857,156.81V143.786h-3.1V156.81a2.944,2.944,0,0,0,2.944,2.944h3.1A2.944,2.944,0,0,1,16.857,156.81Z" transform="translate(-13.762 -143.786)" fill="#6377e7"/>
    </g>
    <g id="Group_187" data-name="Group 187" transform="translate(63.531 37.58)">
      <path id="Path_1050" data-name="Path 1050" d="M224.658,156.81V143.786h3.1V156.81a2.944,2.944,0,0,1-2.944,2.944h-3.1A2.944,2.944,0,0,0,224.658,156.81Z" transform="translate(-221.714 -143.786)" fill="#67dceb"/>
    </g>
    <path id="Path_1051" data-name="Path 1051" d="M103.593,166.139a1.864,1.864,0,0,1-1.7,1.99H70.365a2.013,2.013,0,0,1,0-3.979h31.523A1.864,1.864,0,0,1,103.593,166.139Z" transform="translate(-50.184 -120.574)" fill="#707070"/>
    <g id="Group_188" data-name="Group 188" transform="translate(6.38 42.846)">
      <path id="Path_1052" data-name="Path 1052" d="M27.565,161.675h9.343v5.379H30.679S27.565,166.658,27.565,161.675Z" transform="translate(-27.565 -161.675)" fill="#f46275"/>
      <path id="Path_1053" data-name="Path 1053" d="M206.03,161.675h-9.343v5.379h6.228S206.03,166.658,206.03,161.675Z" transform="translate(-146.904 -161.675)" fill="#f46275"/>
    </g>
    <g id="Group_192" data-name="Group 192" transform="translate(0 0)">
      <path id="Path_1058" data-name="Path 1058" d="M15.647,70.108h.391v3.561a4.852,4.852,0,0,0,2.073,3.974H16.274a.442.442,0,1,0,0,.883H76.388a.442.442,0,1,0,0-.883h-1.84a4.852,4.852,0,0,0,2.073-3.974V70.108h.391A3.389,3.389,0,0,0,80.4,66.723V53.7a.438.438,0,0,0-.112-.291h0l-6.52-7.422-5.311-13.1C67.8,31.271,66.258,30,64.937,30H27.722c-1.321,0-2.867,1.266-3.519,2.882l-5.311,13.1-6.519,7.421h0a.437.437,0,0,0-.112.291V66.723a3.389,3.389,0,0,0,3.385,3.385Zm9.373-36.89a3.607,3.607,0,0,1,2.7-2.33H64.937a3.608,3.608,0,0,1,2.7,2.331l5.095,12.565H19.926ZM16.186,50.4H46.7a.442.442,0,0,0,0-.883H16.962l2.507-2.854H73.191l5.79,6.591h-65.3ZM20.9,77.643a3.978,3.978,0,0,1-3.974-3.974V70.108H27.966v3.561a3.978,3.978,0,0,1-3.974,3.974Zm5.881,0a4.852,4.852,0,0,0,2.073-3.974V70.108H63.81v3.561a4.852,4.852,0,0,0,2.073,3.974Zm48.962-3.974a3.978,3.978,0,0,1-3.974,3.974h-3.1a3.978,3.978,0,0,1-3.974-3.974V70.108H75.738ZM13.145,54.141H79.514V66.723a2.5,2.5,0,0,1-2.5,2.5H15.647a2.5,2.5,0,0,1-2.5-2.5Z" transform="translate(-10.386 -16.119)" fill="#3f3679"/>
      <path id="Path_1059" data-name="Path 1059" d="M69.307,167.511H100.83a2.45,2.45,0,0,0,0-4.862H69.307a2.45,2.45,0,0,0,0,4.862Zm0-3.979H100.83a1.58,1.58,0,0,1,0,3.1H69.307a1.58,1.58,0,0,1,0-3.1Z" transform="translate(-49.125 -119.516)" fill="#3f3679"/>
      <path id="Path_1060" data-name="Path 1060" d="M29.564,166.435a.436.436,0,0,0,.056,0h6.228A.442.442,0,0,0,36.29,166v-5.379a.442.442,0,0,0-.442-.442H26.506a.442.442,0,0,0-.442.442C26.064,165.928,29.422,166.416,29.564,166.435Zm5.843-5.376v4.5H29.655c-.247-.045-2.538-.573-2.7-4.5Z" transform="translate(-20.126 -117.771)" fill="#3f3679"/>
      <path id="Path_1061" data-name="Path 1061" d="M195.63,166.437h6.228a.439.439,0,0,0,.056,0c.143-.018,3.5-.507,3.5-5.818a.442.442,0,0,0-.442-.442H195.63a.442.442,0,0,0-.442.442v5.379A.442.442,0,0,0,195.63,166.437Zm.442-5.379h8.451c-.159,3.931-2.433,4.449-2.7,4.5h-5.753Z" transform="translate(-139.466 -117.77)" fill="#3f3679"/>
      <path id="Path_1062" data-name="Path 1062" d="M146.292,129.591h-3.606a.442.442,0,1,0,0,.883h3.606a.442.442,0,1,0,0-.883Z" transform="translate(-102.107 -96.189)" fill="#3f3679"/>
      <path id="Path_1063" data-name="Path 1063" d="M81.492,170.291h2.974a.442.442,0,1,0,0-.883H81.492a.442.442,0,1,0,0,.883Z" transform="translate(-58.926 -124.285)" fill="#3f3679"/>
      <path id="Path_1064" data-name="Path 1064" d="M162.28,170.291h2.974a.442.442,0,1,0,0-.883H162.28a.442.442,0,0,0,0,.883Z" transform="translate(-115.933 -124.285)" fill="#3f3679"/>
      <path id="Path_1065" data-name="Path 1065" d="M104.625,170.291h13.136a.442.442,0,1,0,0-.883H104.625a.442.442,0,0,0,0,.883Z" transform="translate(-75.249 -124.285)" fill="#3f3679"/>
      <path id="Path_1067" data-name="Path 1067" d="M11.777,236.881H6.332a.442.442,0,0,0,0,.883h5.446a.442.442,0,0,0,0-.883Z" transform="translate(-5.89 -171.897)" fill="#3f3679"/>
      <path id="Path_1068" data-name="Path 1068" d="M234.5,236.881h-5.446a.442.442,0,0,0,0,.883H234.5a.442.442,0,1,0,0-.883Z" transform="translate(-163.049 -171.897)" fill="#3f3679"/>
      <path id="Path_1069" data-name="Path 1069" d="M91.022,236.881H39.6a.442.442,0,0,0,0,.883H91.022a.442.442,0,0,0,0-.883Z" transform="translate(-29.369 -171.897)" fill="#3f3679"/>
      <path id="Path_1070" data-name="Path 1070" d="M6.332,226.01H8.67a.442.442,0,1,0,0-.883H6.332a.442.442,0,1,0,0,.883Z" transform="translate(-5.89 -163.603)" fill="#3f3679"/>
      <path id="Path_1071" data-name="Path 1071" d="M239.167,225.569a.442.442,0,0,0,.442.442h2.338a.442.442,0,1,0,0-.883h-2.338A.442.442,0,0,0,239.167,225.569Z" transform="translate(-170.499 -163.603)" fill="#3f3679"/>
    </g>
  </g>
</svg>
