<svg id="placeholder_1_" data-name="placeholder (1)" xmlns="http://www.w3.org/2000/svg" width="53.008" height="67.594" viewBox="0 0 53.008 67.594">
  <ellipse id="Ellipse_20" data-name="Ellipse 20" cx="23.08" cy="8.543" rx="23.08" ry="8.543" transform="translate(1.202 49.381)" fill="#d6f4fc"/>
  <path id="Path_1178" data-name="Path 1178" d="M73.531,364.442a1.517,1.517,0,0,1-1.295,2.639c-7.1-1.457-11.9-4.258-11.9-7.477,0-4.632,9.47-7.968,20.3-8.479a1.517,1.517,0,0,1,.476,2.979C72.533,356.415,69.076,360.684,73.531,364.442Z" transform="translate(-59.129 -301.682)" fill="#e8f8fc"/>
  <path id="Path_1179" data-name="Path 1179" d="M100.648,46.114,86.145,63.3a4.179,4.179,0,0,1-6.387,0c-6.815-8.078-3.749-4.444-14.5-17.189a23.155,23.155,0,1,1,35.394,0Z" transform="translate(-58.669 -6.897)" fill="#fe4f60"/>
  <path id="Path_1180" data-name="Path 1180" d="M162.619,100.285a10.1,10.1,0,1,1-10.1,10.1,10.1,10.1,0,0,1,10.1-10.1Z" transform="translate(-138.337 -86.164)" fill="#d6f4fc"/>
  <path id="Path_1181" data-name="Path 1181" d="M168.311,102.073a1.622,1.622,0,0,1-.949,2.946,10.121,10.121,0,0,0-10.143,10.155,1.623,1.623,0,0,1-2.947.962,10.1,10.1,0,0,1,14.039-14.064Z" transform="translate(-138.29 -86.164)" fill="#bdeffc"/>
  <path id="Path_1183" data-name="Path 1183" d="M64.85,24.219A11.224,11.224,0,1,0,76.074,12.995,11.237,11.237,0,0,0,64.85,24.219Zm20.2,0a8.971,8.971,0,1,1-8.971-8.971A8.981,8.981,0,0,1,85.045,24.219ZM54.09,57.923c0,3.508,9.023,7.416,21.97,7.416s21.97-3.908,21.97-7.416c0-1.724-2.254-3.588-6.029-4.984a1.126,1.126,0,1,1,.781-2.113c10.015,3.7,10.029,10.485,0,14.194-9.278,3.431-24.166,3.432-33.446,0-11.4-4.217-10.116-12.768,5.995-15.812l-7.817-9.265A24.285,24.285,0,0,1,83.022,1.014a1.127,1.127,0,1,1-.643,2.159A22.032,22.032,0,0,0,59.238,38.49l14.5,17.19a3.053,3.053,0,0,0,4.665,0l14.5-17.19A22.046,22.046,0,0,0,98.1,24.223a1.126,1.126,0,1,1,2.253-.007,24.3,24.3,0,0,1-5.723,15.728l-14.5,17.189a5.306,5.306,0,0,1-8.109,0l-5-5.931c-7.621,1.23-12.925,3.981-12.925,6.721ZM97.222,18.069a2.112,2.112,0,1,0-2.112,2.112A2.111,2.111,0,0,0,97.222,18.069Zm3.065-5.177a1.126,1.126,0,0,1-1.593,1.593,5.066,5.066,0,0,0-7.169,0,1.127,1.127,0,0,1-1.593-1.593A7.318,7.318,0,0,1,100.287,12.891Zm3.385-2.259a1.123,1.123,0,0,1-.8-.33,10.977,10.977,0,0,0-15.532,0A1.127,1.127,0,1,1,85.75,8.709a13.229,13.229,0,0,1,18.719,0,1.128,1.128,0,0,1-.8,1.923Z" transform="translate(-51.792 0)"/>
</svg>
