<svg id="placeholder_1_" data-name="placeholder (1)" xmlns="http://www.w3.org/2000/svg" width="30.584" height="39" viewBox="0 0 30.584 39">
  <ellipse id="Ellipse_20" data-name="Ellipse 20" cx="13.317" cy="4.929" rx="13.317" ry="4.929" transform="translate(0.694 28.491)" fill="#d6f4fc"/>
  <path id="Path_1178" data-name="Path 1178" d="M67.947,358.808a.875.875,0,0,1-.747,1.523c-4.1-.84-6.869-2.457-6.869-4.314,0-2.673,5.464-4.6,11.713-4.892a.875.875,0,0,1,.274,1.719C67.371,354.177,65.377,356.64,67.947,358.808Z" transform="translate(-59.637 -322.597)" fill="#e8f8fc"/>
  <path id="Path_1179" data-name="Path 1179" d="M83.367,30,75,39.92a2.411,2.411,0,0,1-3.685,0L62.945,30a13.36,13.36,0,1,1,20.421,0Z" transform="translate(-59.146 -7.375)" fill="#fe4f60"/>
  <path id="Path_1180" data-name="Path 1180" d="M158.347,100.285a5.826,5.826,0,1,1-5.827,5.826A5.826,5.826,0,0,1,158.347,100.285Z" transform="translate(-144.337 -92.137)" fill="#d6f4fc"/>
  <path id="Path_1181" data-name="Path 1181" d="M161.608,101.317a.936.936,0,0,1-.548,1.7,5.84,5.84,0,0,0-5.852,5.859.936.936,0,0,1-1.7.555,5.827,5.827,0,0,1,8.1-8.115Z" transform="translate(-144.287 -92.137)" fill="#bdeffc"/>
  <path id="Path_1183" data-name="Path 1183" d="M59.326,13.974A6.476,6.476,0,1,0,65.8,7.5,6.483,6.483,0,0,0,59.326,13.974Zm11.652,0A5.176,5.176,0,1,1,65.8,8.8,5.182,5.182,0,0,1,70.978,13.974ZM53.118,33.42c0,2.024,5.206,4.279,12.676,4.279s12.676-2.255,12.676-4.279c0-.995-1.3-2.07-3.479-2.876a.65.65,0,1,1,.451-1.219c5.778,2.137,5.787,6.049,0,8.19a32.088,32.088,0,0,1-19.3,0c-6.578-2.433-5.837-7.367,3.459-9.123l-4.51-5.346A14.012,14.012,0,0,1,69.811.585a.65.65,0,1,1-.371,1.246A12.712,12.712,0,0,0,56.088,22.208l8.368,9.918a1.761,1.761,0,0,0,2.692,0l8.368-9.918a12.72,12.72,0,0,0,3-8.232.65.65,0,0,1,1.3,0,14.022,14.022,0,0,1-3.3,9.074l-8.368,9.918a3.061,3.061,0,0,1-4.679,0l-2.887-3.422c-4.4.71-7.457,2.3-7.457,3.878ZM78,10.425a1.219,1.219,0,1,0-1.219,1.219A1.218,1.218,0,0,0,78,10.425Zm1.769-2.987a.65.65,0,1,1-.919.919,2.923,2.923,0,0,0-4.136,0,.65.65,0,0,1-.919-.919A4.222,4.222,0,0,1,79.772,7.438Zm1.953-1.3a.648.648,0,0,1-.46-.19,6.333,6.333,0,0,0-8.962,0,.65.65,0,0,1-.919-.919,7.633,7.633,0,0,1,10.8,0,.651.651,0,0,1-.46,1.11Z" transform="translate(-51.792 0)"/>
</svg>
