<svg xmlns="http://www.w3.org/2000/svg" width="30.493" height="30.492" viewBox="0 0 30.493 30.492">
  <g id="customer-service" transform="translate(-0.001)">
    <g id="Group_554" data-name="Group 554" transform="translate(0.597 11.002)">
      <path id="Path_1457" data-name="Path 1457" d="M10.975,187.545c-.88,1.672-2.023,4.429.934,7.386l3.4,3.4,3.4,3.4c2.956,2.955,5.714,1.812,7.383.932l2.81-1.478-5.354-5.356-2.291,2.291A15,15,0,0,1,15.5,192.4l2.31-2.31-5.354-5.356Z" transform="translate(-10.002 -184.735)" fill="#98eaf9" fill-rule="evenodd"/>
    </g>
    <g id="Group_555" data-name="Group 555" transform="translate(3.049 9.325)">
      <path id="Path_1458" data-name="Path 1458" d="M53.712,157.036c-.91-.9-1.724-.336-2.168.507l-.373.711,5.354,5.356.817-.816a1.581,1.581,0,0,0,0-2.151Z" transform="translate(-51.171 -156.576)" fill="#cbf4fb" fill-rule="evenodd"/>
    </g>
    <g id="Group_556" data-name="Group 556" transform="translate(14.137 20.853)">
      <path id="Path_1459" data-name="Path 1459" d="M240.311,350.554a1.58,1.58,0,0,0-2.151,0l-.816.816,5.354,5.356.711-.375c.843-.442,1.412-1.258.508-2.166Z" transform="translate(-237.344 -350.131)" fill="#cbf4fb" fill-rule="evenodd"/>
    </g>
    <g id="Group_557" data-name="Group 557" transform="translate(11.746 0.675)">
      <path id="Path_1460" data-name="Path 1460" d="M200.439,13.81a8.744,8.744,0,0,0-1.53,10.3l-1.709,5.3,5.3-1.71a8.74,8.74,0,1,0,5.339-16.364H205.4A8.7,8.7,0,0,0,200.439,13.81Z" transform="translate(-197.201 -11.335)" fill="#d5ea7a" fill-rule="evenodd"/>
    </g>
    <g id="Group_558" data-name="Group 558" transform="translate(0.001 0)">
      <path id="Path_1461" data-name="Path 1461" d="M288.879,67.989a2.344,2.344,0,0,0-2.341,2.342v.679a.6.6,0,0,0,1.191,0v-.679a1.15,1.15,0,1,1,2.3,0v.679c0,.226-.264.541-.52.846a2.753,2.753,0,0,0-.848,1.741v1.667a.6.6,0,1,0,1.191,0V73.6a1.9,1.9,0,0,1,.57-.975,2.59,2.59,0,0,0,.8-1.611v-.679a2.344,2.344,0,0,0-2.341-2.342Z" transform="translate(-269.473 -63.94)"/>
      <path id="Path_1462" data-name="Path 1462" d="M322.854,224.973a.6.6,0,0,0-.6.6v0a.6.6,0,1,0,.6-.6Z" transform="translate(-303.066 -211.574)"/>
      <path id="Path_1463" data-name="Path 1463" d="M405.041,68.471a.6.6,0,0,0-.6.6v6.649a.6.6,0,0,0,1.191,0V69.067A.6.6,0,0,0,405.041,68.471Z" transform="translate(-380.358 -64.393)"/>
      <path id="Path_1464" data-name="Path 1464" d="M405.041,224.916a.6.6,0,0,0-.6.6v.005a.6.6,0,1,0,.6-.6Z" transform="translate(-380.358 -211.521)"/>
      <path id="Path_1465" data-name="Path 1465" d="M17.526,158.7c-.013-.013-.027-.026-.041-.038a2.182,2.182,0,0,0-2.954.036L11.8,161.427l-.054.054a14.507,14.507,0,0,1-4.907-4.875l1.981-1.981.818-.817a2.183,2.183,0,0,0,.036-2.953q-.018-.021-.038-.041l-3.63-3.607a1.813,1.813,0,0,0-1.584-.615,2.2,2.2,0,0,0-1.531,1.267l-1.852,3.52A7.86,7.86,0,0,0,0,154.856a6.271,6.271,0,0,0,2.079,4.608l1.5,1.506a.6.6,0,1,0,.843-.841l-1.5-1.507c-2.51-2.51-1.827-4.789-.828-6.687l1.1-2.094L7.56,154.2l-1.324,1.324q-.228-.445-.434-.912a.6.6,0,1,0-1.091.479,17.83,17.83,0,0,0,.851,1.69l.014.025a15.858,15.858,0,0,0,7.592,6.742.6.6,0,0,0,.477-1.092q-.414-.181-.809-.381l1.3-1.3,4.36,4.362-2.094,1.1c-1.9,1-4.174,1.683-6.685-.826L8.211,163.91a.6.6,0,0,0-.842.843l1.508,1.506a6.307,6.307,0,0,0,4.493,2.079h.115a7.848,7.848,0,0,0,3.474-1.04l3.52-1.852a2.194,2.194,0,0,0,1.268-1.531,1.81,1.81,0,0,0-.614-1.582ZM3.78,148.736l.169-.322a1.136,1.136,0,0,1,.658-.644.765.765,0,0,1,.564.283l3.608,3.585a.99.99,0,0,1,.021,1.329l-.4.4Zm16.79,15a1.134,1.134,0,0,1-.645.657l-.323.17-4.622-4.624.394-.395a.989.989,0,0,1,1.329.02l3.585,3.609A.76.76,0,0,1,20.569,163.733Z" transform="translate(-0.001 -137.846)"/>
      <path id="Path_1466" data-name="Path 1466" d="M203.813,2.729a9.347,9.347,0,0,0-13.2,0,9.253,9.253,0,0,0-2.642,5.293,9.419,9.419,0,0,0,.89,5.48l-1.633,5.064a.6.6,0,0,0,.75.75l5.062-1.634a9.418,9.418,0,0,0,5.48.892,9.336,9.336,0,0,0,5.294-15.844Zm-.842,12.358a8.1,8.1,0,0,1-9.6,1.426.6.6,0,0,0-.464-.042l-4.192,1.353,1.352-4.193a.6.6,0,0,0-.042-.464,8.144,8.144,0,1,1,12.942,1.92Z" transform="translate(-176.049 0)"/>
      <path id="Path_1467" data-name="Path 1467" d="M89.169,403.14a.6.6,0,0,0,0,.842l0,0a.6.6,0,1,0,0-.844Z" transform="translate(-83.694 -378.966)"/>
    </g>
  </g>
</svg>
