<svg id="Layer_1" enable-background="new 0 0 256 256" height="512" viewBox="0 0 256 256" width="512" xmlns="http://www.w3.org/2000/svg"><path d="m132.43 209.677h-9.127c-3.5 0-6.529-2.011-7.997-4.94-.603 1.204-.943 2.562-.943 4 0 4.938 4.003 8.94 8.94 8.94h9.127c4.938 0 8.94-4.003 8.94-8.94 0-1.438-.34-2.796-.943-4-1.468 2.929-4.497 4.94-7.997 4.94z" fill="#ebe7f2"/><path d="m46.657 134.75h19.205v12.108h-19.205z" fill="#ebe7f2"/><path d="m189.872 134.75h19.205v12.108h-19.205z" fill="#ebe7f2"/><path d="m104.239 85.868c-4.395 15.393-14.699 21.558-30.291 24.562-.654 3.298-.997 6.703-.997 10.187 16.807-3.053 27.658-9.531 31.806-26.715 13.567 19.11 48.71 32.152 78.027 26.715 0-3.36-.319-6.647-.928-9.835-28.285 4.851-61.683-7.237-75.883-25.257-.503-.638-1.511-.436-1.734.343z" fill="#ebe7f2"/><g fill="#846f75"><path d="m155.107 132.389c0-2.962-2.401-5.364-5.364-5.364s-5.364 2.402-5.364 5.364 2.401 5.364 5.364 5.364 5.364-2.401 5.364-5.364z"/><path d="m100.626 132.389c0 2.962 2.401 5.364 5.364 5.364 2.962 0 5.364-2.402 5.364-5.364s-2.401-5.364-5.364-5.364c-2.962 0-5.364 2.402-5.364 5.364z"/><path d="m137.389 159.62c-5.251 5.25-13.793 5.25-19.043 0-.976-.977-2.56-.977-3.535 0-.977.976-.977 2.559 0 3.535 3.6 3.6 8.328 5.4 13.057 5.4 4.728 0 9.458-1.8 13.057-5.399.977-.977.977-2.56 0-3.536-.978-.976-2.56-.975-3.536 0z"/><path d="m185.283 120.616c0-30.84-25.757-55.931-57.417-55.931-31.659 0-57.416 25.091-57.416 55.931 0 .741.329 1.444.898 1.919s1.32.672 2.049.541c12.786-2.323 26.402-7.05 32.395-23.878 13.454 15.112 39.315 25.123 63.335 25.123 4.816 0 9.559-.402 14.112-1.247 1.185-.22 2.044-1.253 2.044-2.458zm-78.488-28.162c-.474-.668-1.238-1.053-2.038-1.053-.157 0-.315.015-.473.045-.962.186-1.728.916-1.958 1.869-3.323 13.767-10.932 20.746-26.781 24.233 1.638-26.661 24.479-47.863 52.322-47.863 28.177 0 51.233 21.714 52.373 48.826-27.088 4.138-60.282-7.516-73.445-26.057z"/><path d="m179.362 137.33c-.74 4.584-1.929 9.071-3.532 13.335-.486 1.292.167 2.734 1.46 3.22.29.109.587.161.88.161 1.011 0 1.963-.618 2.34-1.62 1.721-4.576 2.996-9.387 3.788-14.299.221-1.363-.706-2.646-2.069-2.867-1.366-.218-2.647.707-2.867 2.07z"/><path d="m141.638 185.268c-4.466 1.428-9.099 2.152-13.771 2.152-25.154 0-46.811-21.066-51.495-50.09-.22-1.363-1.506-2.289-2.867-2.07-1.363.22-2.29 1.503-2.07 2.867 5.077 31.459 28.81 54.293 56.432 54.293 5.19 0 10.335-.804 15.294-2.389 1.314-.42 2.04-1.828 1.619-3.143-.42-1.315-1.826-2.04-3.142-1.62z"/><path d="m132.431 197.297h-9.127c-5.371 0-9.878 3.726-11.101 8.726-29.663-2.452-52.675-26.796-53.407-56.665h7.067c1.381 0 2.5-1.119 2.5-2.5v-35.11c0-1.381-1.119-2.5-2.5-2.5h-7.039c1.315-31.014 26.947-55.842 58.279-55.842h21.531c31.332 0 56.963 24.828 58.278 55.842h-7.039c-1.381 0-2.5 1.119-2.5 2.5v35.11c0 1.381 1.119 2.5 2.5 2.5h19.205c1.381 0 2.5-1.119 2.5-2.5v-35.11c0-1.381-1.119-2.5-2.5-2.5h-7.166c-1.319-33.771-29.19-60.842-63.278-60.842h-21.531c-34.089 0-61.96 27.071-63.279 60.842h-7.166c-1.381 0-2.5 1.119-2.5 2.5v35.11c0 1.381 1.119 2.5 2.5 2.5h7.138c.736 32.589 25.902 59.146 58.299 61.668 1.063 5.215 5.685 9.152 11.21 9.152h9.127c6.309 0 11.44-5.132 11.44-11.44s-5.133-11.441-11.441-11.441zm74.146-52.94h-14.205v-30.11h14.205zm-157.42-30.109h14.205v30.11h-14.205zm83.274 100.93h-9.127c-3.551 0-6.44-2.889-6.44-6.44s2.889-6.44 6.44-6.44h9.127c3.551 0 6.44 2.889 6.44 6.44s-2.89 6.44-6.44 6.44z"/><path d="m182.783 157.203c-18.04 0-32.717 14.677-32.717 32.717s14.677 32.717 32.717 32.717 32.717-14.677 32.717-32.717c0-18.041-14.677-32.717-32.717-32.717zm0 60.434c-15.283 0-27.717-12.434-27.717-27.717s12.434-27.717 27.717-27.717 27.717 12.434 27.717 27.717-12.434 27.717-27.717 27.717z"/></g><path d="m184.362 203.594-15.253-15.253c-3.302-3.302-3.302-8.655 0-11.957l1.792-1.792c.642-.642 1.683-.642 2.325 0l6.608 6.608c.642.642.642 1.683 0 2.325l-1.744 1.744c-.642.642-.642 1.683 0 2.325l7.019 7.019c.642.642 1.683.642 2.325 0l1.744-1.744c.642-.642 1.683-.642 2.325 0l6.608 6.608c.642.642.642 1.683 0 2.325l-1.792 1.792c-3.302 3.302-8.656 3.302-11.957 0z" fill="#65c1d6"/></svg>